<?xml version="1.0" standalone="no"?>
<!DOCTYPE svg PUBLIC "-//W3C//DTD SVG 20010904//EN"
 "http://www.w3.org/TR/2001/REC-SVG-20010904/DTD/svg10.dtd">
<svg version="1.0" xmlns="http://www.w3.org/2000/svg"
 width="1060" height="610" viewBox="30 330 1060 610"
 preserveAspectRatio="xMidYMid meet">

<g transform="translate(0.000000,1402.000000) scale(0.100000,-0.100000)"
fill="#d8bb84" stroke="none">
<path d="M6880 9809 c17 -31 -21 -100 -105 -184 -76 -78 -123 -108 -158 -103
-72 10 22 189 146 279 49 35 101 39 117 8z m988 -549 c2 -21 -8 -33 -59 -70
-141 -103 -243 -272 -264 -437 -7 -57 7 -168 32 -248 15 -50 117 -304 134
-337 8 -15 24 -10 147 49 627 301 1004 429 1482 503 484 75 974 31 1259 -113
98 -49 84 -59 -16 -11 -180 86 -393 124 -697 124 -527 0 -984 -106 -1608 -373
-171 -74 -474 -221 -511 -249 -18 -13 -18 -16 1 -85 34 -121 37 -186 12 -289
-27 -118 -74 -199 -170 -294 -86 -84 -202 -152 -330 -191 -61 -19 -98 -24
-200 -24 -110 0 -130 3 -166 22 -124 66 -110 214 36 375 103 113 326 281 537
402 44 26 86 52 92 59 7 10 -7 56 -54 173 -62 152 -106 277 -119 337 -4 15
-13 27 -20 27 -15 0 -90 -56 -170 -127 -78 -69 -457 -351 -610 -453 -277 -185
-494 -303 -651 -356 -149 -50 -288 -31 -348 48 -36 46 -61 148 -53 214 13 110
84 291 173 443 56 95 54 115 -8 67 -64 -49 -474 -328 -589 -402 -216 -137
-457 -260 -620 -314 -101 -34 -235 -49 -322 -36 -146 22 -230 173 -199 358 24
149 81 276 233 528 129 213 146 246 131 261 -39 39 -343 -147 -658 -404 -151
-123 -418 -381 -657 -634 -82 -88 -112 -113 -132 -113 -27 0 -66 31 -66 53 0
31 26 101 76 206 31 62 52 116 49 119 -3 4 -16 0 -28 -8 -257 -162 -679 -365
-952 -460 -360 -125 -631 -165 -900 -134 -154 17 -230 36 -312 75 -87 41 -173
119 -132 119 6 0 21 -13 35 -30 34 -40 147 -95 241 -117 98 -23 435 -25 553
-4 320 57 612 158 985 341 212 104 516 278 563 323 12 11 43 57 69 102 49 85
115 190 246 395 165 256 305 433 368 466 54 27 99 13 99 -31 0 -26 -75 -153
-145 -247 -132 -177 -525 -796 -525 -828 0 -27 26 -11 106 66 82 78 349 312
469 410 195 159 446 333 563 391 96 48 182 57 225 23 23 -18 27 -29 27 -74 0
-63 -35 -140 -165 -361 -158 -269 -225 -433 -225 -554 0 -51 38 -122 78 -144
122 -71 393 8 760 219 293 170 779 501 876 599 18 18 70 86 116 151 233 332
321 424 404 424 29 0 56 -24 56 -50 0 -10 -42 -74 -93 -142 -186 -245 -311
-430 -439 -648 -187 -320 -238 -512 -156 -594 29 -28 30 -29 116 -23 161 9
340 94 727 342 185 119 518 370 708 533 l97 84 0 52 c0 67 31 189 66 258 58
114 156 214 269 272 38 20 62 25 100 23 45 -2 50 -4 53 -27z m-2129 -2809 c27
-52 99 -113 163 -140 l53 -21 -44 4 c-26 3 -39 1 -32 -4 10 -6 6 -12 -17 -24
-83 -43 -151 -139 -153 -216 0 -31 -2 -29 -18 25 -9 33 -25 74 -34 91 -27 52
-130 124 -178 124 -13 0 6 14 49 35 94 47 145 111 168 210 l7 30 8 -38 c5 -20
18 -55 28 -76z m-419 -153 c0 -10 -208 -14 -998 -17 -561 -2 -1017 0 -1042 5
-42 8 182 11 1693 22 272 1 347 -1 347 -10z m2260 1 c303 -1 414 -4 385 -11
-26 -6 -363 -8 -955 -4 -503 4 -919 6 -923 6 -5 0 -5 5 -1 12 5 8 140 10 538
5 292 -4 722 -7 956 -8z m-5392 -909 c27 -17 32 -25 32 -59 0 -23 -7 -46 -16
-56 -15 -15 -15 -18 5 -36 45 -42 35 -109 -19 -136 -14 -7 -62 -13 -107 -13
l-83 0 0 160 0 160 78 0 c59 0 85 -5 110 -20z m542 -10 c46 -33 74 -100 65
-157 -9 -61 -73 -128 -131 -138 -59 -9 -114 9 -154 50 -30 31 -34 42 -38 98
-4 79 18 122 79 155 56 30 130 27 179 -8z m350 -89 c0 -110 2 -122 23 -146 15
-18 33 -26 57 -27 90 -3 110 31 110 187 0 87 3 105 15 105 21 0 22 -228 1
-268 -42 -81 -190 -76 -233 9 -8 15 -13 68 -13 142 0 110 1 117 20 117 19 0
20 -7 20 -119z m700 104 c0 -5 -22 -11 -50 -13 l-50 -3 0 -145 c0 -137 -1
-144 -20 -144 -19 0 -20 7 -20 145 l0 145 -55 0 c-43 0 -55 3 -55 15 0 13 18
15 125 13 75 -2 125 -7 125 -13z m272 -145 c3 -147 2 -160 -14 -160 -16 0 -18
14 -18 160 0 133 2 160 15 160 11 0 15 -28 17 -160z m507 131 c40 -29 63 -79
63 -137 0 -47 -13 -76 -49 -116 l-25 -26 36 -24 c39 -25 44 -36 21 -44 -7 -3
-31 7 -51 22 -30 23 -47 28 -95 29 -95 1 -150 55 -157 152 -3 50 0 64 24 99
36 56 75 75 145 71 39 -2 65 -10 88 -26z m341 -91 c0 -115 1 -122 25 -145 35
-36 102 -35 136 1 22 24 24 34 26 142 2 98 5 118 19 120 14 3 15 -11 12 -128
l-3 -132 -32 -28 c-43 -38 -92 -47 -148 -26 -63 25 -75 56 -75 200 0 109 1
116 20 116 19 0 20 -7 20 -120z m688 103 c3 -10 -19 -13 -88 -13 -80 0 -91 -2
-86 -16 3 -9 6 -33 6 -55 l0 -39 70 0 c55 0 70 -3 70 -15 0 -11 -17 -15 -71
-17 l-71 -3 -1 -57 -2 -58 87 0 c72 0 88 -3 88 -15 0 -12 -18 -15 -105 -15
l-105 0 0 160 0 161 102 -3 c70 -2 103 -7 106 -15z m718 1 c19 -9 34 -20 34
-25 0 -17 -21 -19 -49 -4 -61 31 -128 14 -162 -42 -30 -48 -23 -134 13 -169
38 -38 93 -47 145 -24 26 11 45 15 49 9 11 -18 -17 -38 -70 -50 -47 -10 -58
-9 -99 9 -75 33 -111 114 -87 195 6 23 19 51 28 61 49 55 131 72 198 40z m459
-135 c33 -83 62 -156 64 -161 2 -5 -7 -8 -20 -6 -16 2 -26 14 -37 46 l-14 42
-72 0 -73 0 -17 -45 c-13 -32 -23 -45 -37 -45 -18 0 -19 2 -3 38 8 20 30 75
49 122 82 210 80 210 160 9z m475 136 c0 -11 -12 -15 -50 -15 l-50 0 0 -145
c0 -138 -1 -145 -20 -145 -19 0 -20 7 -20 145 l0 145 -55 0 c-42 0 -55 3 -55
15 0 13 21 15 125 15 104 0 125 -2 125 -15z m440 0 c0 -12 -16 -15 -85 -15
l-85 0 0 -55 0 -55 75 0 c59 0 75 -3 75 -15 0 -11 -17 -15 -72 -17 l-73 -3 -3
-57 -3 -57 87 -3 c59 -2 89 -7 92 -15 3 -10 -22 -13 -102 -13 l-106 0 0 160 0
160 100 0 c82 0 100 -3 100 -15z m416 -1 c64 -30 67 -114 5 -152 l-30 -18 44
-67 c42 -64 43 -67 20 -67 -18 0 -31 14 -61 65 -36 62 -40 65 -76 65 l-38 0 0
-65 c0 -58 -2 -65 -20 -65 -19 0 -20 7 -20 160 l0 160 71 0 c44 0 84 -6 105
-16z m334 -143 c0 -134 -2 -160 -15 -165 -9 -3 -18 1 -21 9 -4 10 1 295 5 313
1 1 8 2 16 2 13 0 15 -24 15 -159z m395 24 l90 -130 3 133 c2 106 5 132 17
132 11 0 15 -30 17 -160 l3 -161 -24 3 c-18 2 -43 32 -105 125 -44 67 -84 122
-88 122 -5 1 -8 -55 -8 -124 0 -112 -2 -125 -17 -125 -17 0 -18 13 -15 152 1
84 2 157 2 161 0 5 8 7 17 5 10 -2 58 -62 108 -133z m600 121 c34 -15 44 -29
26 -40 -5 -3 -22 1 -37 9 -90 47 -187 -16 -187 -120 0 -61 25 -100 78 -121 39
-14 52 -15 86 -5 l40 12 -3 47 c-3 47 -3 47 -41 50 -24 2 -37 8 -34 15 5 15
40 20 84 12 l34 -6 -3 -67 c-3 -63 -5 -68 -33 -81 -53 -25 -115 -25 -164 1
-55 29 -81 74 -81 143 0 124 118 199 235 151z m-5583 -1355 c29 -25 32 -35 36
-94 6 -90 -3 -130 -37 -166 -47 -51 -115 -40 -147 22 -27 50 -33 95 -24 156
17 104 102 145 172 82z m418 19 c0 -8 -68 -15 -127 -13 -9 1 -13 -16 -13 -51
l0 -52 50 0 c69 0 100 -29 100 -95 0 -40 -4 -51 -31 -73 -34 -29 -88 -34 -136
-14 -37 16 -36 15 -28 27 4 8 15 6 35 -4 74 -38 145 7 138 89 -2 22 -10 32
-37 43 -31 13 -51 12 -103 -3 -15 -4 -18 1 -18 29 0 19 3 55 6 81 l7 46 78 0
c46 0 79 -4 79 -10z m369 -6 c47 -33 65 -137 40 -227 -12 -43 -56 -77 -101
-77 -84 0 -136 140 -92 250 26 64 101 90 153 54z m695 -5 c40 -31 31 -119 -12
-119 -12 0 -8 -8 16 -26 26 -20 32 -33 32 -62 0 -20 -4 -42 -8 -48 -17 -24
-59 -44 -95 -44 -47 0 -104 27 -89 42 7 7 18 5 33 -6 31 -21 82 -20 107 2 52
43 29 110 -40 115 -45 2 -52 27 -9 27 41 0 74 42 61 76 -7 18 -7 23 2 18 7 -4
8 -3 4 4 -12 21 -75 25 -117 9 -44 -18 -53 -5 -11 17 39 22 95 20 126 -5z
m426 5 c0 -8 -19 -10 -60 -7 -82 7 -86 5 -82 -56 l4 -52 33 7 c22 4 45 0 68
-11 93 -44 51 -185 -55 -185 -43 0 -102 26 -93 40 4 6 18 4 35 -5 77 -40 150
9 134 90 -8 43 -52 62 -110 46 -21 -6 -39 -9 -41 -7 -2 2 -1 37 3 78 l6 74 79
-1 c52 0 79 -4 79 -11z m368 0 c37 -26 56 -73 56 -144 0 -100 -41 -160 -109
-160 -29 0 -72 22 -87 44 -19 28 -28 113 -18 166 17 92 95 139 158 94z m413
-10 c20 -18 28 -104 9 -104 -5 0 -10 -8 -10 -17 0 -9 -29 -45 -65 -79 -74 -69
-74 -69 37 -69 50 0 68 -4 68 -13 0 -10 -24 -13 -105 -11 -58 1 -105 5 -105 7
0 3 30 36 66 74 80 85 104 123 104 165 0 56 -80 74 -125 29 -13 -13 -28 -20
-34 -16 -12 7 21 42 49 53 26 11 91 0 111 -19z m374 16 c3 -5 0 -10 -9 -10
-24 0 -75 -49 -96 -93 -27 -54 -25 -61 6 -32 68 63 176 -3 157 -96 -12 -61
-91 -97 -146 -67 -39 21 -50 40 -55 94 -6 67 30 145 85 187 39 29 49 32 58 17z
m345 -150 c0 -123 -3 -160 -13 -160 -9 0 -12 33 -12 140 0 77 3 140 8 140 4 0
7 5 7 12 0 6 -10 2 -22 -9 -25 -23 -68 -39 -68 -26 1 8 80 62 93 63 4 0 7 -72
7 -160z m410 148 c0 -10 -19 -12 -70 -10 l-70 4 0 -57 0 -56 33 6 c47 9 104
-16 118 -52 5 -15 7 -45 4 -66 -12 -68 -88 -96 -170 -61 -24 10 -34 19 -28 25
6 6 20 4 39 -6 40 -20 76 -19 106 5 29 22 43 73 28 100 -16 29 -73 44 -116 30
-19 -7 -37 -10 -38 -8 -1 1 -1 38 2 81 l4 77 79 0 c57 0 79 -4 79 -12z m-2680
-188 c0 -6 -27 -10 -60 -10 -33 0 -60 4 -60 10 0 6 27 10 60 10 33 0 60 -4 60
-10z"/>
<path d="M3619 8403 c-13 -16 -12 -17 4 -4 9 7 17 15 17 17 0 8 -8 3 -21 -13z"/>
<path d="M3559 8353 c-13 -16 -12 -17 4 -4 9 7 17 15 17 17 0 8 -8 3 -21 -13z"/>
<path d="M3499 8303 c-13 -16 -12 -17 4 -4 9 7 17 15 17 17 0 8 -8 3 -21 -13z"/>
<path d="M2825 8020 c-3 -6 1 -7 9 -4 18 7 21 14 7 14 -6 0 -13 -4 -16 -10z"/>
<path d="M7470 7937 c-253 -159 -403 -275 -486 -376 -93 -113 -115 -186 -70
-238 21 -25 32 -28 99 -31 58 -3 91 1 143 18 325 104 536 394 471 645 -8 28
-20 51 -28 52 -8 2 -66 -30 -129 -70z"/>
<path d="M2755 7980 c-3 -6 1 -7 9 -4 18 7 21 14 7 14 -6 0 -13 -4 -16 -10z"/>
<path d="M2610 7900 c-19 -11 -31 -19 -27 -20 11 0 67 29 67 35 0 7 -1 7 -40
-15z"/>
<path d="M4845 7910 c-3 -6 1 -7 9 -4 18 7 21 14 7 14 -6 0 -13 -4 -16 -10z"/>
<path d="M6355 7900 c-3 -6 1 -7 9 -4 18 7 21 14 7 14 -6 0 -13 -4 -16 -10z"/>
<path d="M4338 7733 c7 -3 16 -2 19 1 4 3 -2 6 -13 5 -11 0 -14 -3 -6 -6z"/>
<path d="M2110 7670 c-8 -5 -10 -10 -5 -10 6 0 17 5 25 10 8 5 11 10 5 10 -5
0 -17 -5 -25 -10z"/>
<path d="M1945 7610 c-13 -6 -15 -9 -5 -9 8 0 22 4 30 9 18 12 2 12 -25 0z"/>
<path d="M1778 7553 c7 -3 16 -2 19 1 4 3 -2 6 -13 5 -11 0 -14 -3 -6 -6z"/>
<path d="M1618 7513 c7 -3 16 -2 19 1 4 3 -2 6 -13 5 -11 0 -14 -3 -6 -6z"/>
<path d="M1568 7503 c7 -3 16 -2 19 1 4 3 -2 6 -13 5 -11 0 -14 -3 -6 -6z"/>
<path d="M1518 7493 c7 -3 16 -2 19 1 4 3 -2 6 -13 5 -11 0 -14 -3 -6 -6z"/>
<path d="M1468 7483 c7 -3 16 -2 19 1 4 3 -2 6 -13 5 -11 0 -14 -3 -6 -6z"/>
<path d="M1243 7463 c9 -2 23 -2 30 0 6 3 -1 5 -18 5 -16 0 -22 -2 -12 -5z"/>
<path d="M7083 7263 c9 -2 23 -2 30 0 6 3 -1 5 -18 5 -16 0 -22 -2 -12 -5z"/>
<path d="M2040 5325 l0 -55 51 0 c66 0 89 13 89 50 0 39 -32 60 -92 60 l-48 0
0 -55z"/>
<path d="M2040 5180 l0 -60 60 0 c47 0 64 4 80 20 50 50 6 100 -89 100 l-51 0
0 -60z"/>
<path d="M2569 5365 c-40 -22 -63 -64 -63 -118 0 -56 24 -94 77 -120 100 -50
202 50 166 164 -24 76 -111 111 -180 74z"/>
<path d="M4399 5365 c-39 -21 -61 -62 -62 -115 -1 -75 42 -125 117 -137 30 -5
36 -3 36 12 0 12 5 15 17 11 39 -15 92 81 77 141 -21 86 -111 129 -185 88z"/>
<path d="M6655 5291 c-14 -39 -27 -73 -28 -77 -2 -8 92 -17 109 -10 9 4 5 23
-15 75 -15 39 -30 73 -33 76 -3 4 -18 -25 -33 -64z"/>
<path d="M7960 5315 l0 -65 49 0 c55 0 101 28 101 61 0 11 -11 31 -25 44 -19
20 -34 25 -75 25 l-50 0 0 -65z"/>
</g>
</svg>
