<svg xmlns="http://www.w3.org/2000/svg" width="512" height="512" viewBox="0 0 512 512" role="img" aria-labelledby="title desc">
  <title id="title">Nis favicon</title>
  <desc id="desc">Square favicon for Nis boutique catering</desc>
  <defs>
    <linearGradient id="gold" x1="126" y1="94" x2="384" y2="378" gradientUnits="userSpaceOnUse">
      <stop offset="0" stop-color="#F2D493"/>
      <stop offset="0.48" stop-color="#C69A43"/>
      <stop offset="1" stop-color="#8C6524"/>
    </linearGradient>
    <filter id="shadow" x="-20%" y="-20%" width="140%" height="140%">
      <feDropShadow dx="0" dy="18" stdDeviation="18" flood-color="#000000" flood-opacity="0.22"/>
    </filter>
  </defs>

  <rect width="512" height="512" rx="124" fill="#14110F"/>
  <rect x="18" y="18" width="476" height="476" rx="106" fill="none" stroke="rgba(255,255,255,0.08)"/>

  <g filter="url(#shadow)">
    <path d="M139 270C168 270 183 261 207 261" stroke="url(#gold)" stroke-width="8" stroke-linecap="round"/>
    <path d="M319 271C346 271 361 260 388 266C401 269 410 274 418 279" stroke="url(#gold)" stroke-width="8" stroke-linecap="round"/>
    <path d="M205 195C217 159 249 139 288 140C352 142 395 187 393 253C391 321 343 369 282 370C239 371 213 348 201 314" stroke="url(#gold)" stroke-width="8" stroke-linecap="round"/>
  </g>

  <text
    x="256"
    y="294"
    text-anchor="middle"
    fill="url(#gold)"
    font-family="Georgia, 'Times New Roman', serif"
    font-size="146"
    font-style="italic"
    font-weight="600"
    letter-spacing="0"
  >Nis</text>
</svg>
